<?xml version="1.0" encoding="UTF-8"?>
<svg version="1.1" xmlns="http://www.w3.org/2000/svg" width="161" height="167">
<path d="M0 0 C53.13 0 106.26 0 161 0 C161 55.11 161 110.22 161 167 C107.87 167 54.74 167 0 167 C0 111.89 0 56.78 0 0 Z " fill="#212330" transform="translate(0,0)"/>
<path d="M0 0 C13.53 0 27.06 0 41 0 C41 55.11 41 110.22 41 167 C-1.9 167 -44.8 167 -89 167 C-88.505 165.02 -88.505 165.02 -88 163 C-87.01 162.67 -86.02 162.34 -85 162 C-82.34560865 156.55849774 -82.87396872 151.68525667 -84.61598206 145.98402405 C-85.30094689 142.44516157 -83.4005417 139.27066795 -82.02734375 136.05859375 C-81.70721817 135.29450699 -81.38709259 134.53042023 -81.05726624 133.74317932 C-80.37625093 132.12939904 -79.68911493 130.51819001 -78.99633789 128.90942383 C-77.94369395 126.45196017 -76.92527711 123.98212494 -75.90820312 121.50976562 C-75.24163063 119.94183639 -74.57307466 118.37474861 -73.90234375 116.80859375 C-73.4519297 115.70226845 -73.4519297 115.70226845 -72.99241638 114.57359314 C-70.8339643 109.67686787 -69.03409439 108.17280309 -64 106 C-63.25693604 105.15099121 -62.51387207 104.30198242 -61.74829102 103.42724609 C-57.81309338 99.9517433 -54.12937457 99.76350991 -49.02734375 99.1640625 C-48.06727921 99.03558929 -47.10721466 98.90711609 -46.11805725 98.77474976 C-44.09455994 98.50800466 -42.06969984 98.25142433 -40.04370117 98.00439453 C-36.94183589 97.62552959 -33.84523898 97.21596763 -30.74804688 96.80078125 C-28.77887877 96.54507477 -26.8094837 96.29110874 -24.83984375 96.0390625 C-23.45066994 95.85798447 -23.45066994 95.85798447 -22.03343201 95.67324829 C-21.1689595 95.56918671 -20.304487 95.46512512 -19.41381836 95.35791016 C-18.65612656 95.26418121 -17.89843475 95.17045227 -17.11778259 95.07388306 C-14.84209588 94.9944912 -13.14435899 95.24019061 -11 96 C-8.80623302 99.06315892 -7.4486456 102.55859291 -5.9375 106 C-5.48439453 106.92167969 -5.03128906 107.84335938 -4.56445312 108.79296875 C-1.54395369 115.6240185 -1.54395369 115.6240185 -2.85180664 119.57006836 C-4.21875 121.96484375 -4.21875 121.96484375 -5.71289062 124.07006836 C-7.7712149 127.15638349 -7.58678927 129.4140656 -7 133 C-5.58049507 137.06975084 -4.22772199 140.08026325 -0.7265625 142.703125 C4.04491426 144.97265263 8.84102582 144.75395022 14 144 C17.98105359 142.0817868 20.35864077 139.0594331 22 135 C22.65559699 129.95342782 22.52177258 125.40878597 20.75 120.625 C17.72846104 117.74080372 16.17176639 117.43654163 12.25 116.3125 C7.56053009 114.62291158 5.60770957 112.82036325 3.4375 108.4609375 C1.37172737 103.73288037 -0.39788803 98.90341181 -2 94 C-0.74703125 93.67644531 0.5059375 93.35289063 1.796875 93.01953125 C2.50166992 92.83753174 3.20646484 92.65553223 3.93261719 92.46801758 C6.73668092 91.83322894 9.14172225 91.67519571 12 92 C12.61875 92.495 13.2375 92.99 13.875 93.5 C16.55576599 95.3923054 18.79423244 95.47802628 22.03125 95.36328125 C25.12683181 94.7920727 26.85143672 93.21367126 29 91 C30.6020886 87.79582279 30.49285215 84.47660568 30 81 C27.8755173 77.55687286 26.85147359 76.28382453 23 75 C18.90300628 74.62064873 16.72206983 74.55071211 13.1875 76.75 C10.9205228 78.79593275 10.9205228 78.79593275 10.125 81.1875 C9 83 9 83 5.875 83.75 C1.8895005 84.007129 -2.00811994 84.07003298 -6 84 C-25.21374697 46.29887286 -25.21374697 46.29887286 -24.13671875 32.26953125 C-22.37746653 27.20941405 -19.43724014 25.25432885 -14.796875 22.8359375 C-11.81829847 21.94569256 -10.85270896 22.01670152 -8 23 C-2.76203585 23.59619104 0.7820935 23.94449892 5.0625 20.625 C8.09970072 16.5100829 8.51609098 14.16090977 8 9 C5.99707521 5.52001484 3.87946651 3.2931555 0 2 C0 1.34 0 0.68 0 0 Z " fill="#212330" transform="translate(120,0)"/>
<path d="M0 0 C3.9798524 2.87749002 5.77939183 5.74253345 6.625 10.5625 C5.89023954 14.60368255 4.58129999 16.82868858 2 20 C-1.2486581 22.16577207 -2.18601347 22.24955466 -5.9375 22.1875 C-6.79214844 22.18105469 -7.64679688 22.17460937 -8.52734375 22.16796875 C-11 22 -11 22 -13.02734375 21.3046875 C-15.13299295 20.77811717 -15.13299295 20.77811717 -17.2890625 22.21484375 C-18.05992188 22.78332031 -18.83078125 23.35179688 -19.625 23.9375 C-23.82460137 27 -23.82460137 27 -26 27 C-25.73896484 27.8185144 -25.73896484 27.8185144 -25.47265625 28.65356445 C-24.91411242 31.42637683 -25.19798868 33.72479566 -25.4375 36.54296875 C-25.51436453 46.35280443 -21.02445768 54.587496 -17 63.3125 C-16.22695914 65.03481817 -15.45610733 66.75812062 -14.6875 68.48242188 C-12.816704 72.66671994 -10.91681655 76.83659544 -9 81 C-4.05 81 0.9 81 6 81 C6.66 79.35 7.32 77.7 8 76 C10.84546706 72.99193482 12.36142613 72.07982173 16.5 71.5625 C21.09263971 72.13657996 23.47350107 73.57877685 26.8125 76.6875 C28.56934427 80.10872305 28.78220664 83.2951849 28 87 C26.24700706 90.0190434 24.16977599 92.41511201 21 94 C13.58208387 94.47857523 13.58208387 94.47857523 11.1328125 92.46484375 C8.16383907 90.42571365 6.27127822 90.8914776 2.75 91.3125 C1.67234375 91.43238281 0.5946875 91.55226563 -0.515625 91.67578125 C-1.33546875 91.78277344 -2.1553125 91.88976562 -3 92 C-3 98.34006574 0.33954289 105.81297102 4 111 C6.84935722 112.76408136 9.22679134 113.46609735 12.46484375 114.25 C15.96079402 115.28424107 17.43016244 116.78000136 19.2578125 119.875 C20.781193 124.23667892 20.73791993 128.47682412 20 133 C18.3125 136.4375 18.3125 136.4375 16 139 C15.34 139.78375 14.68 140.5675 14 141.375 C9.14825598 144.00302801 4.38295417 143.81279043 -1 143 C-5.50001671 141.21890757 -7.54963611 138.78450483 -9.9375 134.625 C-11.24035674 130.17995937 -12.10331351 126.45015116 -10.1328125 122.07421875 C-9.15198837 120.34524775 -8.07987596 118.66889921 -7 117 C-5.71381502 115.01550098 -5.71381502 115.01550098 -6.71264648 112.84521484 C-7.09493408 111.97590332 -7.47722168 111.1065918 -7.87109375 110.2109375 C-8.28037109 109.26992187 -8.68964844 108.32890625 -9.11132812 107.359375 C-9.54896484 106.37453125 -9.98660156 105.3896875 -10.4375 104.375 C-10.87126953 103.38242188 -11.30503906 102.38984375 -11.75195312 101.3671875 C-12.82770887 98.90831723 -13.91064366 96.45286789 -15 94 C-16.54168164 94.18346798 -18.08334391 94.3670987 -19.625 94.55078125 C-20.63103271 94.6705835 -21.63706543 94.79038574 -22.67358398 94.91381836 C-24.90778016 95.18159395 -27.14166521 95.45197722 -29.37524414 95.72485352 C-35.2240999 96.43832921 -41.07259532 97.12016591 -46.93359375 97.7265625 C-48.02607422 97.84604248 -49.11855469 97.96552246 -50.24414062 98.08862305 C-52.34675271 98.31833502 -54.45098686 98.53372414 -56.55664062 98.73364258 C-57.50603516 98.84087646 -58.45542969 98.94811035 -59.43359375 99.05859375 C-60.26947021 99.14423584 -61.10534668 99.22987793 -61.96655273 99.31811523 C-64.17552387 99.81343388 -64.17552387 99.81343388 -65.16430664 101.94946289 C-65.44008545 102.62614014 -65.71586426 103.30281738 -66 104 C-68.60319658 106.35127433 -69.42129926 107 -73 107 C-73.37640625 108.21042969 -73.7528125 109.42085938 -74.140625 110.66796875 C-76.67059123 118.26828495 -80.0671209 125.53541775 -83.32421875 132.84570312 C-83.81019531 133.96525391 -84.29617187 135.08480469 -84.796875 136.23828125 C-85.24385742 137.24930908 -85.69083984 138.26033691 -86.15136719 139.30200195 C-87.06188833 142.19675718 -87.01229228 143.21691827 -86 146 C-84.65068493 152.97146119 -84.65068493 152.97146119 -86.125 157.3125 C-88.2614182 160.37469941 -89.53379206 161.61351682 -93 163 C-96.96670012 163.57931523 -100.08012705 163.36794918 -103.8125 161.875 C-107.40037194 158.79968119 -108.76150084 155.63542281 -109.4375 151 C-108.8509226 146.97775494 -107.70412441 145.04213996 -105 142 C-103.14346313 141.32699585 -103.14346313 141.32699585 -101.08837891 140.78271484 C-97.52431182 139.51967156 -97.04507768 139.06666194 -94.77490234 135.70947266 C-94.18180743 134.37397061 -93.6200583 133.02422508 -93.0859375 131.6640625 C-92.7817691 130.94769623 -92.47760071 130.23132996 -92.16421509 129.49325562 C-91.53084254 127.98425112 -90.91135721 126.46935014 -90.30517578 124.94921875 C-89.37482521 122.62456326 -88.39676204 120.32469919 -87.41015625 118.0234375 C-86.79916129 116.55068803 -86.19098866 115.07676382 -85.5859375 113.6015625 C-85.29447845 112.91494537 -85.00301941 112.22832825 -84.70272827 111.52090454 C-83.45646935 108.33637114 -82.84344655 106.52225358 -83.84155273 103.19262695 C-84.22384033 102.46906006 -84.60612793 101.74549316 -85 101 C-84.94921875 98.31640625 -84.94921875 98.31640625 -84.6875 95.5625 C-84.55941952 91.43493208 -84.55941952 91.43493208 -86.55078125 87.953125 C-88.30442382 86.47711322 -90.03987668 85.18507456 -92 84 C-92.56847656 84.32355469 -93.13695313 84.64710937 -93.72265625 84.98046875 C-97.43109466 86.64067874 -101.01162224 86.45663001 -105 86 C-109.18531174 84.27128428 -111.23950002 82.16960522 -113 78 C-113.58321819 74.06127991 -113.38684912 70.94563119 -111.875 67.25 C-108.57875265 63.29450318 -105.63999354 61.23428479 -100.5 60.5 C-95.37817903 61.23168871 -92.46068297 63.29586987 -89.125 67.1875 C-87.95094261 70.12264348 -88.01338105 71.37174145 -88.25 74.4375 C-88.34926618 77.25949579 -88.28065129 78.57944446 -86.69921875 80.94921875 C-83.55071736 83.94413471 -82.09458866 84.99181381 -77.60498047 85.02539062 C-73.72692987 84.34391146 -73.72692987 84.34391146 -71.86010742 80.78466797 C-71.24638137 79.36597497 -70.66321717 77.93380679 -70.10546875 76.4921875 C-69.78717606 75.73334259 -69.46888336 74.97449768 -69.14094543 74.19265747 C-68.12996209 71.76341323 -67.15909261 69.32022689 -66.1875 66.875 C-65.51614687 65.25157844 -64.84234394 63.62916767 -64.16601562 62.0078125 C-60.04736685 52.18583292 -60.04736685 52.18583292 -57 42 C-57.33 41.34 -57.66 40.68 -58 40 C-58.68568776 34.93526089 -59.1674543 30.05266689 -56.578125 25.5 C-53.1743825 21.54351299 -49.98765774 18.43038286 -44.66796875 17.6640625 C-40.19016908 17.59354597 -37.01116099 17.64297445 -33.1875 20.125 C-30.24252282 22.32071487 -30.24252282 22.32071487 -27.5 21.5625 C-26.2625 20.7890625 -26.2625 20.7890625 -25 20 C-24.39671875 19.68804688 -23.7934375 19.37609375 -23.171875 19.0546875 C-21.10977166 17.85598515 -19.58336266 16.79045096 -18 15 C-17.43085597 12.67704918 -17.31392707 10.53898503 -17.2265625 8.15234375 C-16.87929607 4.85331269 -15.35992761 3.2250746 -13 1 C-8.6278039 -1.63981651 -4.80545845 -1.55202199 0 0 Z " fill="#F7F7F7" transform="translate(123,2)"/>
<path d="M0 0 C5.28 0 10.56 0 16 0 C17.99722061 4.51922112 19.99218664 9.0392997 21.98144531 13.56201172 C22.65916131 15.10100534 23.33819312 16.63942021 24.01855469 18.17724609 C24.99498599 20.38489179 25.9667014 22.59456015 26.9375 24.8046875 C27.24373291 25.49432587 27.54996582 26.18396423 27.86547852 26.89450073 C30 31.77225659 30 31.77225659 30 34 C19.54093251 35.7208034 9.07224537 37.30620008 -1.4375 38.6875 C-2.42564697 38.81874268 -3.41379395 38.94998535 -4.43188477 39.08520508 C-5.82491821 39.26539185 -5.82491821 39.26539185 -7.24609375 39.44921875 C-8.47863892 39.60910278 -8.47863892 39.60910278 -9.73608398 39.7722168 C-12 40 -12 40 -16 40 C-13.34134037 31.40974595 -9.81853628 23.20570562 -6.3125 14.9375 C-5.69956186 13.48515596 -5.08692914 12.03268298 -4.47460938 10.58007812 C-2.98714908 7.05163714 -1.49346012 3.52592939 0 0 Z " fill="#21232F" transform="translate(74,52)"/>
<path d="M0 0 C2.64 0.99 5.28 1.98 8 3 C7.41616249 7.61414355 6.1525801 11.3383683 4.2421875 15.5703125 C3.69377198 16.80848817 3.14560207 18.04677265 2.59765625 19.28515625 C1.73469976 21.21362499 0.86806702 23.14031114 -0.00341797 25.06494141 C-0.84817125 26.93746991 -1.67867708 28.81582771 -2.5078125 30.6953125 C-3.26022217 32.3661792 -3.26022217 32.3661792 -4.02783203 34.07080078 C-5.03956495 37.11921153 -5.10707783 38.08805449 -4 41 C-2.65068493 47.97146119 -2.65068493 47.97146119 -4.125 52.3125 C-6.2614182 55.37469941 -7.53379206 56.61351682 -11 58 C-14.96670012 58.57931523 -18.08012705 58.36794918 -21.8125 56.875 C-25.40037194 53.79968119 -26.76150084 50.63542281 -27.4375 46 C-26.8509226 41.97775494 -25.70412441 40.04213996 -23 37 C-21.13975525 36.3319397 -21.13975525 36.3319397 -19.08178711 35.79150391 C-15.48331026 34.51652506 -15.05547627 34.0854505 -12.82250977 30.64599609 C-12.24950072 29.28377023 -11.7070276 27.90840439 -11.19140625 26.5234375 C-10.89435287 25.79758453 -10.5972995 25.07173157 -10.29124451 24.32388306 C-9.35405962 22.01757481 -8.45777707 19.697855 -7.5625 17.375 C-6.9356612 15.80620272 -6.30612994 14.2384784 -5.67382812 12.671875 C-4.78679264 10.47411437 -3.90414277 8.27561302 -3.0426178 6.06771851 C-1.10188061 1.10188061 -1.10188061 1.10188061 0 0 Z " fill="#F7F7F7" transform="translate(41,107)"/>
<path d="M0 0 C3.6578218 2.03993908 5.66946174 3.50419262 8 7 C8.72517392 11.50282411 8.60000036 14.99285654 6.25 18.9375 C3.14683856 21.78206465 1.31026074 22.82909642 -2.875 23.375 C-7.43500643 22.82779923 -10.53459148 20.86506539 -13.375 17.25 C-14.33387734 13.79804156 -14.5738278 10.51994371 -14 7 C-10.50204098 1.25335305 -6.69562884 -0.80347546 0 0 Z " fill="#21232F" transform="translate(84,25)"/>
<path d="M0 0 C2.87029869 1.79393668 4.49131638 2.98263276 6 6 C6.37712577 10.99691647 6.09290612 13.99067725 3 18 C-0.68497796 20.45665197 -3.71971786 20.70086491 -8 20 C-10.8100346 18.20636089 -12.50940468 16.98119065 -14 14 C-14.6469176 9.2959849 -14.63833677 6.00898393 -12.0625 1.9375 C-7.95859581 -0.65884755 -4.73725096 -0.95259938 0 0 Z " fill="#21222E" transform="translate(132,120)"/>
<path d="M0 0 C1.9375 1.0625 1.9375 1.0625 3 3 C3.49891602 6.92005446 3.55253414 9.11594538 1.4375 12.5 C-1 14 -1 14 -4.5625 14 C-8 13 -8 13 -9.9375 11.25 C-11.23370853 8.50508782 -11.52487013 6.99925788 -11 4 C-7.99829475 -0.44252378 -5.15110438 -0.6555951 0 0 Z " fill="#22232F" transform="translate(26,69)"/>
<path d="M0 0 C2 2 2 2 2.375 5.4375 C2 9 2 9 0.375 11 C-2.81179601 12.34180884 -4.71109893 11.92947204 -8 11 C-10 9 -10 9 -10.375 5.5625 C-10 2 -10 2 -8.375 0 C-5.18820399 -1.34180884 -3.28890107 -0.92947204 0 0 Z " fill="#21232E" transform="translate(30,148)"/>
<path d="M0 0 C1.875 1.125 1.875 1.125 3 3 C3.39365568 6.14924548 3.52854531 8.11909116 1.875 10.875 C-0.91106042 12.54663625 -2.81988862 12.46376624 -6 12 C-8.35210784 9.88310295 -8.91810953 8.55958485 -9.375 5.4375 C-9 3 -9 3 -7.875 1.1875 C-5.12844028 -0.55198782 -3.18153026 -0.39769128 0 0 Z " fill="#1F212C" transform="translate(120,7)"/>
<path d="M0 0 C2.68930863 0.94125802 3.95731359 1.47526558 5.5 3.875 C5.35970853 6.68082937 4.81262012 8.38138929 3.3125 10.75 C1.5 11.875 1.5 11.875 -1.5625 11.75 C-4.5 10.875 -4.5 10.875 -6.5 7.875 C-6.28982001 5.07260013 -5.81043413 3.34065119 -4.25 1 C-2.5 -0.125 -2.5 -0.125 0 0 Z " fill="#282A34" transform="translate(140.5,79.125)"/>
<path d="M0 0 C2.4375 0.75 2.4375 0.75 4.4375 2.75 C4.77052312 5.8804173 4.91421956 7.92898298 3.3125 10.6875 C1.4375 11.75 1.4375 11.75 -1.625 11.5625 C-4.5625 10.75 -4.5625 10.75 -6.5625 8.75 C-6.375 5.25 -6.375 5.25 -5.5625 1.75 C-2.5625 -0.25 -2.5625 -0.25 0 0 Z " fill="#22242F" transform="translate(49.5625,92.25)"/>
</svg>
